<svg width="25" height="25" viewBox="0 0 25 25" fill="none" xmlns="http://www.w3.org/2000/svg">
<path d="M23.4761 0.227766C23.6579 0.0649669 23.8848 -0.0151916 24.114 0.00238078C24.3432 0.0199532 24.5589 0.134044 24.7206 0.323176C24.8818 0.507435 24.98 0.752993 24.9972 1.01459C25.0145 1.27619 24.9496 1.5362 24.8145 1.74669C23.2654 4.16629 18.2595 11.8468 14.2363 16.5085C13.0675 17.8633 11.8987 18.8804 11.023 19.554C10.1867 20.2009 9.10189 20.0005 8.39075 19.1781C7.70595 18.3843 7.51828 17.1802 8.04176 16.2337C8.61133 15.1995 9.5019 13.8046 10.7448 12.4612C14.8947 7.97696 21.4053 2.08063 23.4761 0.227766Z" fill="black"/>
<path d="M9.95628 21.1836C9.95628 22.1958 9.60941 23.1665 8.99198 23.8822C8.37455 24.5979 7.53714 25 6.66396 25C5.0178 25 3.37165 25 0.902409 24.0459C-1.56683 23.0918 1.72549 22.1377 2.54857 21.1836C3.37165 20.2295 4.84496 17.3672 6.66396 17.3672C7.53714 17.3672 8.37455 17.7693 8.99198 18.485C9.60941 19.2007 9.95628 20.1714 9.95628 21.1836Z" fill="black"/>
</svg>
