<svg xmlns="http://www.w3.org/2000/svg" width="25" height="25" viewBox="0 0 128 128"><g><path id="Share" d="m8 116c-.305 0-.613-.035-.918-.105-1.805-.43-3.082-2.04-3.082-3.895 0-36.348 4.598-66.578 60-67.953v-28.047c0-1.59.941-3.027 2.395-3.664 1.449-.633 3.148-.359 4.32.727l52 48c.82.753 1.285 1.82 1.285 2.937s-.465 2.184-1.285 2.938l-52 48c-1.168 1.086-2.867 1.367-4.32.727-1.454-.638-2.395-2.075-2.395-3.665v-27.953c-38.004.91-45.016 14.93-52.422 29.742-.687 1.379-2.09 2.211-3.578 2.211zm60-40c2.211 0 4 1.789 4 4v22.863l42.102-38.863-42.102-38.863v22.863c0 2.211-1.789 4-4 4-44.188 0-53.703 17.09-55.574 44.387 8.285-11.129 22.406-20.387 55.574-20.387z" fill="#000000" /></g></svg>