<svg width="25" height="25" viewBox="0 0 25 25" fill="none" xmlns="http://www.w3.org/2000/svg">
<path d="M25 7.89269C24.9992 7.60318 24.9436 7.31669 24.8364 7.04977C24.7292 6.78284 24.5725 6.54075 24.3754 6.33748L18.9545 0.622084C18.5535 0.222743 18.021 0 17.4673 0C16.9136 0 16.381 0.222743 15.9801 0.622084L0.617192 16.6641C0.224855 17.0777 0.00470951 17.6367 0.00470951 18.2193C0.00470951 18.8019 0.224855 19.3609 0.617192 19.7745L4.11214 23.4448H0.743605C0.546389 23.4448 0.35725 23.5267 0.217797 23.6725C0.0783438 23.8184 0 24.0162 0 24.2224C0 24.4286 0.0783438 24.6264 0.217797 24.7722C0.35725 24.9181 0.546389 25 0.743605 25H19.3337C19.5309 25 19.7201 24.9181 19.8595 24.7722C19.999 24.6264 20.0773 24.4286 20.0773 24.2224C20.0773 24.0162 19.999 23.8184 19.8595 23.6725C19.7201 23.5267 19.5309 23.4448 19.3337 23.4448H10.9607L24.3456 9.4479C24.5482 9.24723 24.7103 9.00631 24.8227 8.73926C24.9351 8.47222 24.9953 8.18441 25 7.89269ZM8.85634 23.4448H6.21654L1.67311 18.6936C1.61488 18.6329 1.56868 18.5608 1.53715 18.4814C1.50562 18.402 1.48939 18.3169 1.48939 18.2309C1.48939 18.145 1.50562 18.0599 1.53715 17.9805C1.56868 17.9011 1.61488 17.829 1.67311 17.7683L5.77038 13.4759L12.0836 20.07L8.85634 23.4448ZM23.3269 8.3126L13.1321 18.9736L6.82629 12.3717L17.0137 1.71851C17.1327 1.59922 17.2912 1.53262 17.4561 1.53262C17.621 1.53262 17.7795 1.59922 17.8986 1.71851L23.3269 7.38725C23.4448 7.51135 23.5116 7.67885 23.5128 7.85381C23.5128 7.93942 23.4964 8.02416 23.4645 8.10298C23.4325 8.1818 23.3857 8.25309 23.3269 8.3126Z" fill="black"/>
</svg>
