<?xml version="1.0" standalone="no"?>
<!DOCTYPE svg PUBLIC "-//W3C//DTD SVG 20010904//EN"
 "http://www.w3.org/TR/2001/REC-SVG-20010904/DTD/svg10.dtd">
<svg version="1.0" xmlns="http://www.w3.org/2000/svg"
 width="700.000000pt" height="700.000000pt" viewBox="0 0 700.000000 700.000000"
 preserveAspectRatio="xMidYMid meet">
<metadata>
Created by potrace 1.14, written by Peter Selinger 2001-2017
</metadata>
<g transform="translate(0.000000,700.000000) scale(0.100000,-0.100000)"
fill="#000000" stroke="none">
<path d="M3128 6995 c-2 -2 -38 -6 -81 -9 -42 -3 -92 -8 -110 -10 -34 -6 -76
-12 -142 -22 -22 -3 -71 -13 -110 -21 -38 -8 -88 -19 -110 -24 -22 -4 -49 -10
-60 -13 -45 -10 -255 -77 -330 -104 -267 -100 -536 -242 -770 -408 -60 -43
-115 -83 -121 -88 -6 -6 -52 -44 -101 -84 -189 -154 -454 -445 -602 -662 -188
-274 -340 -584 -433 -885 -70 -224 -103 -374 -133 -600 -21 -161 -28 -561 -12
-715 13 -122 18 -164 23 -190 2 -14 7 -41 10 -60 13 -81 16 -99 35 -185 43
-195 120 -428 203 -615 51 -114 157 -319 187 -362 11 -14 19 -29 19 -33 0 -12
148 -224 223 -320 97 -123 112 -140 277 -306 185 -185 364 -329 585 -469 55
-34 101 -64 103 -65 2 -2 -34 -41 -79 -86 -99 -101 -129 -158 -129 -244 0 -90
30 -143 144 -257 129 -130 168 -153 266 -153 111 0 139 18 358 237 l187 187
40 -10 c22 -5 47 -12 55 -14 70 -21 326 -69 430 -81 36 -3 79 -9 95 -11 61 -8
483 -10 570 -2 242 22 414 52 637 114 557 154 1046 442 1463 859 83 83 166
171 185 195 19 24 40 48 45 55 71 79 239 324 318 462 140 247 259 540 328 812
30 115 34 132 44 182 9 47 45 277 45 292 0 4 63 69 140 146 158 157 186 201
177 282 -8 70 -26 97 -145 217 -115 114 -116 116 -127 227 -5 51 -16 119 -40
251 -15 82 -77 281 -126 405 -28 74 -127 275 -170 349 -37 64 -173 262 -216
316 -27 33 -88 112 -137 175 -123 161 -179 225 -341 385 -148 148 -181 176
-333 293 -181 139 -463 303 -672 392 -41 18 -89 39 -107 46 -90 40 -417 139
-522 159 -100 19 -255 45 -301 50 -30 3 -71 8 -90 11 -41 6 -536 14 -542 9z"/>
</g>
</svg>
